# xmcd
#
# Track frame offsets: 
#        300
#        29419
#        62620
#        93606
#        109633
#        134384
#        153046
#        185918
#        204543
#
# Disc length: 3013 seconds
#
# Revision: 0
# Processed by: cddbd v1.5.2PL0 Copyright (c) Steve Scherf et al.
# Submitted via: ExactAudioCopy v1.0b1
#
DISCID=7b0bc109
DTITLE=Bernard Allison, Larry McCray, Carl Weathersby and Lucky Peterson
DTITLE=Various Artist - Triple Fret
DYEAR=2005
DGENRE=General Blues
TTITLE0=Bottle Of Whiskey
TTITLE1=Bluesman
TTITLE2=Get Drunk and Pop The Trunk
TTITLE3=Don't Tie Me Down
TTITLE4=I'm Praying For You
TTITLE5=Where's Lucky
TTITLE6=Good To Me
TTITLE7=Ain't Nothing But The Truth
TTITLE8=Take It Slow
EXTD=
EXTT0=
EXTT1=
EXTT2=
EXTT3=
EXTT4=
EXTT5=
EXTT6=
EXTT7=
EXTT8=
PLAYORDER=
